<svg width="376" height="140" viewBox="0 0 376 140" fill="none" xmlns="http://www.w3.org/2000/svg">
<path fill-rule="evenodd" clip-rule="evenodd" d="M48 48H56V32H48V24H56V8H48V0H0V56H48V48ZM47 55V47H55V33H47V23H55V9H47V1H1V55H47ZM15 25V7H41V25H15ZM15 49V31H41V49H15ZM40 24H16V8H40V24ZM40 48H16V32H40V48ZM80 40H88V48H96V56H120V48H112V40H104V32H120V8H112V0H64V56H80V40ZM79 55V39H89V47H97V55H119V49H111V41H103V31H119V9H111V1H65V55H79ZM79 33V7H105V25H97V33H79ZM96 32H80V8H104V24H96V32ZM144 48V32H176V24H144V8H184V0H128V56H184V48H144ZM183 49H143V31H175V25H143V7H183V1H129V55H183V49ZM208 48H216V40H224V48H232V56H240V48H248V0H232V32H224V0H216V32H208V0H192V48H200V56H208V48ZM207 55V47H215V39H225V47H233V55H239V47H247V1H233V33H223V1H217V33H207V1H193V47H201V55H207ZM272 48V32H304V24H272V8H312V0H256V56H312V48H272ZM311 49H271V31H303V25H271V7H311V1H257V55H311V49ZM360 48H368V40H376V16H368V8H360V0H320V56H360V48ZM359 55V47H367V39H375V17H367V9H359V1H321V55H359ZM335 49V7H353V15H361V41H353V49H335ZM352 8V16H360V40H352V48H336V8H352ZM40 92H56V84H8V92H24V140H40V92ZM39 139V91H55V85H9V91H25V139H39ZM112 132H120V92H112V84H72V92H64V132H72V140H112V132ZM111 139V131H119V93H111V85H73V93H65V131H73V139H111ZM79 133V91H105V133H79ZM104 132H80V92H104V132ZM144 124H152V132H160V140H184V132H176V124H168V116H160V108H168V100H176V92H184V84H168V92H160V100H152V108H144V84H128V140H144V124ZM143 139V123H153V131H161V139H183V133H175V125H167V117H159V107H167V99H175V91H183V85H169V93H161V101H153V109H143V85H129V139H143ZM208 132V116H240V108H208V92H248V84H192V140H248V132H208ZM247 133H207V115H239V109H207V91H247V85H193V139H247V133ZM272 108H280V116H288V124H296V140H312V84H296V108H288V100H280V92H272V84H256V140H272V108ZM271 139V107H281V115H289V123H297V139H311V85H297V109H287V101H279V93H271V85H257V139H271ZM368 132H376V116H368V108H336V92H360V100H376V92H368V84H328V92H320V108H328V116H360V132H336V124H320V132H328V140H368V132ZM367 139V131H375V117H367V109H335V91H361V99H375V93H367V85H329V93H321V107H329V115H361V133H335V125H321V131H329V139H367Z" fill="white"/>
</svg>
